<svg id="Capa_1" data-name="Capa 1" xmlns="http://www.w3.org/2000/svg" viewBox="0 0 113.00146 115.42857"><defs><style>.cls-1,.cls-5{fill:#dce0e6;}.cls-2{fill:none;stroke:#f5f5f7;stroke-width:2px;stroke-dasharray:4.98776 2.99266;}.cls-2,.cls-4{stroke-miterlimit:10;}.cls-3{fill:#aeb8c2;}.cls-4{fill:#fff;stroke:#dce0e6;}.cls-5{font-size:50.73234px;font-family:Comfortaa-Bold, Comfortaa;font-weight:700;}</style></defs><title>NotFound</title><ellipse class="cls-1" cx="52.92702" cy="113.42857" rx="39.45714" ry="2"/><rect class="cls-2" x="1" y="1" width="88.46988" height="104.28571" rx="10.71429"/><circle class="cls-3" cx="58.65444" cy="52.15172" r="28.61314"/><circle class="cls-4" cx="58.65444" cy="52.15172" r="27.10719"/><text class="cls-5" transform="translate(45.20676 67.99037)">?</text><path class="cls-1" d="M75.71429,82.132l8.75454,8.58228L91,84.31163,83.80877,77.2619A70.79345,70.79345,0,0,1,75.71429,82.132Z" transform="translate(-6.38727 -3.28571)"/><path class="cls-3" d="M89.99374,85.287l-5.79651,5.79651a4.65746,4.65746,0,0,0,0,6.58664l19.1443,19.1443a4.65747,4.65747,0,0,0,6.58665,0l8.09641-8.09641a4.65747,4.65747,0,0,0,0-6.58665L98.85533,82.96212a4.65728,4.65728,0,0,0-6.57189-.01478C91.04289,84.17781,89.93964,85.287,89.99374,85.287Z" transform="translate(-6.38727 -3.28571)"/></svg>